<?xml version="1.0" encoding="UTF-8"?>
<svg width="173px" height="155px" viewBox="0 0 173 155" version="1.1" xmlns="http://www.w3.org/2000/svg" xmlns:xlink="http://www.w3.org/1999/xlink">
    <!-- Generator: Sketch 43.1 (39012) - http://www.bohemiancoding.com/sketch -->
    <title>Icon</title>
    <desc>Created with Sketch.</desc>
    <defs></defs>
    <g id="Internal-Flow" stroke="none" stroke-width="1" fill="none" fill-rule="evenodd">
        <g id="Login/Signup" transform="translate(-881.000000, -242.000000)" fill-rule="nonzero" fill="#ff6a00">
            <g id="Body" transform="translate(-1.000000, 86.000000)">
                <g id="Panel" transform="translate(595.500000, 100.500000)">
                    <g id="Header" transform="translate(192.500000, 51.000000)">
                        <g id="Icon" transform="translate(77.595035, 0.000000)">
                            <g id="sign-in" transform="translate(26.826055, 25.116279)">
                                <path d="M4.04663041,62.9475842 L75.8050779,62.9475842 L57.3002867,81.7922924 C55.8956563,83.1951243 55.8956563,85.6446846 57.2984882,87.049315 C58.0017026,87.7525294 58.9207373,88.1895655 59.8433691,88.1895655 C60.7642023,88.1895655 61.683237,87.8820216 62.3864515,87.1788071 L85.4342598,64.1561778 C86.1086982,63.4817394 86.4881822,62.5770927 86.4881822,61.6238864 C86.4881822,60.6706802 86.1086982,59.760638 85.4342598,59.0861996 L84.3407703,57.9945086 C84.092577,57.6348081 83.7796376,57.3218687 83.4181386,57.0754739 L62.38825,36.0455852 C60.9836196,34.6409548 58.704917,34.6409548 57.3020852,36.0455852 C55.8974548,37.4502156 55.8974548,39.3836057 57.3020852,40.7900346 L72.6109376,55.7535746 L4.04663041,55.7535746 C2.06108376,55.7535746 0.449625602,57.3650328 0.449625602,59.3505794 C0.449625602,61.3361261 2.06108376,62.9475842 4.04663041,62.9475842 Z" id="Shape"></path>
                                <path d="M112.856026,106.617021 L112.856026,17.1595115 C112.856026,8.53749092 105.827479,0 97.1245254,0 L50.3616644,0 C41.829569,0 33.7219201,8.22994701 33.7219201,17.1595115 L33.7219201,38.4537799 C33.7219201,40.4393266 35.3333783,42.0507848 37.3189249,42.0507848 C39.3044716,42.0507848 40.9159297,40.4393266 40.9159297,38.4537799 L40.9159297,17.1595115 C40.9159297,12.2154283 45.8096548,7.19400963 50.3616644,7.19400963 L97.1245254,7.19400963 C101.885161,7.19400963 105.662016,12.4762112 105.662016,17.1595115 L105.662016,106.617021 C105.662016,111.406433 101.699916,113.305652 97.1245254,113.305652 L50.3616644,113.305652 C46.1082062,113.305652 40.9159297,111.71038 40.9159297,106.617021 L40.9159297,85.2148425 C40.9159297,83.2292959 39.3044716,81.6178377 37.3189249,81.6178377 C35.3333783,81.6178377 33.7219201,83.2292959 33.7219201,85.2148425 L33.7219201,106.617021 C33.7219201,115.057393 41.2414587,120.499661 50.3616644,120.499661 L97.1245254,120.499661 C106.44976,120.499661 112.856026,114.785819 112.856026,106.617021 Z" id="Shape"></path>
                            </g>
                            <g id="stars">
                                <g id="group-2" transform="translate(23.598726, 24.203822) rotate(218.000000) translate(-23.598726, -24.203822) translate(10.891720, 3.630573)">
                                    <path d="M14.8921516,20.9602672 C9.36175926,20.9602672 4.86256307,25.4594634 4.86256307,30.9898558 C4.86256307,36.5202482 9.36175926,41.0198125 14.8921516,41.0198125 C20.422544,41.0198125 24.9217402,36.5202482 24.9217402,30.9898558 C24.9217402,25.4594634 20.422544,20.9602672 14.8921516,20.9602672 Z M14.8921516,34.5712469 C12.9173797,34.5712469 11.3107605,32.9646278 11.3107605,30.9894876 C11.3107605,29.0143475 12.9173797,27.4084647 14.8921516,27.4084647 C16.8669236,27.4084647 18.4735427,29.0147157 18.4735427,30.9898558 C18.4735427,32.9646278 16.8672918,34.5712469 14.8921516,34.5712469 Z" id="Shape"></path>
                                    <ellipse id="Oval" cx="4.04195033" cy="4.57820094" rx="4.04195033" ry="4.04195033"></ellipse>
                                </g>
                                <g id="group-1" transform="translate(152.484076, 113.757962)">
                                    <path d="M30.3892097,45.2011043 C33.8238315,45.2011043 36.6182628,42.4069016 36.6182628,38.9725085 C36.6182628,35.5378867 33.8238315,32.7434554 30.3892097,32.7434554 C26.9545879,32.7434554 24.1603852,35.5378867 24.1603852,38.9725085 C24.1608425,42.4069016 26.9548165,45.2011043 30.3892097,45.2011043 Z M30.3892097,36.7483039 C31.6156317,36.7483039 32.6136429,37.7460865 32.6136429,38.9727371 C32.6136429,40.1989305 31.6158603,41.196713 30.3892097,41.196713 C29.1625591,41.196713 28.1650051,40.1991591 28.1650051,38.9727371 C28.1652338,37.7460865 29.1627877,36.7483039 30.3892097,36.7483039 Z" id="Shape"></path>
                                    <ellipse id="Oval" cx="12.631241" cy="41.4843415" rx="2.5102325" ry="2.5102325"></ellipse>
                                    <path d="M2.04935009,19.4537874 C6.78012891,19.4537874 10.629274,23.3027039 10.629274,28.0334827 C10.629274,29.1391831 11.5257693,30.0356784 12.6314697,30.0356784 C13.73717,30.0356784 14.6336653,29.1391831 14.6336653,28.0334827 C14.6336653,23.3027039 18.4825818,19.4537874 23.2133606,19.4537874 C24.319061,19.4537874 25.2155563,18.5572922 25.2155563,17.4515918 C25.2155563,16.3458914 24.319061,15.4493962 23.2133606,15.4493962 C18.4825818,15.4493962 14.6336653,11.600251 14.6336653,6.86947222 C14.6336653,5.76377185 13.73717,4.86727657 12.6314697,4.86727657 C11.5257693,4.86727657 10.629274,5.76377185 10.629274,6.86947222 C10.629274,11.600251 6.78012891,15.4493962 2.04935009,15.4493962 C0.943649722,15.4493962 0.0471544461,16.3458914 0.0471544461,17.4515918 C0.0471544461,18.5572922 0.943649722,19.4537874 2.04935009,19.4537874 Z M12.6314697,13.6735536 C13.6070742,15.1857749 14.897058,16.4757586 16.4092793,17.4515918 C14.897058,18.4271963 13.6073028,19.7171801 12.6314697,21.2294014 C11.6558651,19.7171801 10.3656527,18.427425 8.85343143,17.4515918 C10.3656527,16.4759873 11.6558651,15.1857749 12.6314697,13.6735536 Z" id="Shape"></path>
                                    <ellipse id="Oval" cx="28.7292873" cy="2.68308392" rx="2.5102325" ry="2.5102325"></ellipse>
                                </g>
                            </g>
                        </g>
                    </g>
                </g>
            </g>
        </g>
    </g>
</svg>