<?xml version="1.0" encoding="UTF-8"?>
<svg width="173px" height="155px" viewBox="0 0 173 155" version="1.1" xmlns="http://www.w3.org/2000/svg" xmlns:xlink="http://www.w3.org/1999/xlink">
    <!-- Generator: Sketch 43.1 (39012) - http://www.bohemiancoding.com/sketch -->
    <title>Icon</title>
    <desc>Created with Sketch.</desc>
    <defs></defs>
    <g id="Internal-Flow" stroke="none" stroke-width="1" fill="none" fill-rule="evenodd">
        <g id="Login/Signup" transform="translate(-881.000000, -242.000000)" fill-rule="nonzero" fill="#1c3254">
            <g id="Body" transform="translate(-1.000000, 86.000000)">
                <g id="Panel" transform="translate(595.500000, 100.500000)">
                    <g id="Header" transform="translate(192.500000, 51.000000)">
                        <g id="Icon" transform="translate(77.595035, 0.000000)">
                            <g id="stars">
                                <g id="group-2" transform="translate(23.598726, 24.203822) rotate(218.000000) translate(-23.598726, -24.203822) translate(10.891720, 3.630573)">
                                    <path d="M14.8921516,20.9602672 C9.36175926,20.9602672 4.86256307,25.4594634 4.86256307,30.9898558 C4.86256307,36.5202482 9.36175926,41.0198125 14.8921516,41.0198125 C20.422544,41.0198125 24.9217402,36.5202482 24.9217402,30.9898558 C24.9217402,25.4594634 20.422544,20.9602672 14.8921516,20.9602672 Z M14.8921516,34.5712469 C12.9173797,34.5712469 11.3107605,32.9646278 11.3107605,30.9894876 C11.3107605,29.0143475 12.9173797,27.4084647 14.8921516,27.4084647 C16.8669236,27.4084647 18.4735427,29.0147157 18.4735427,30.9898558 C18.4735427,32.9646278 16.8672918,34.5712469 14.8921516,34.5712469 Z" id="Shape"></path>
                                    <ellipse id="Oval" cx="4.04195033" cy="4.57820094" rx="4.04195033" ry="4.04195033"></ellipse>
                                </g>
                                <g id="group-1" transform="translate(152.484076, 113.757962)">
                                    <path d="M30.3892097,45.2011043 C33.8238315,45.2011043 36.6182628,42.4069016 36.6182628,38.9725085 C36.6182628,35.5378867 33.8238315,32.7434554 30.3892097,32.7434554 C26.9545879,32.7434554 24.1603852,35.5378867 24.1603852,38.9725085 C24.1608425,42.4069016 26.9548165,45.2011043 30.3892097,45.2011043 Z M30.3892097,36.7483039 C31.6156317,36.7483039 32.6136429,37.7460865 32.6136429,38.9727371 C32.6136429,40.1989305 31.6158603,41.196713 30.3892097,41.196713 C29.1625591,41.196713 28.1650051,40.1991591 28.1650051,38.9727371 C28.1652338,37.7460865 29.1627877,36.7483039 30.3892097,36.7483039 Z" id="Shape"></path>
                                    <ellipse id="Oval" cx="12.631241" cy="41.4843415" rx="2.5102325" ry="2.5102325"></ellipse>
                                    <path d="M2.04935009,19.4537874 C6.78012891,19.4537874 10.629274,23.3027039 10.629274,28.0334827 C10.629274,29.1391831 11.5257693,30.0356784 12.6314697,30.0356784 C13.73717,30.0356784 14.6336653,29.1391831 14.6336653,28.0334827 C14.6336653,23.3027039 18.4825818,19.4537874 23.2133606,19.4537874 C24.319061,19.4537874 25.2155563,18.5572922 25.2155563,17.4515918 C25.2155563,16.3458914 24.319061,15.4493962 23.2133606,15.4493962 C18.4825818,15.4493962 14.6336653,11.600251 14.6336653,6.86947222 C14.6336653,5.76377185 13.73717,4.86727657 12.6314697,4.86727657 C11.5257693,4.86727657 10.629274,5.76377185 10.629274,6.86947222 C10.629274,11.600251 6.78012891,15.4493962 2.04935009,15.4493962 C0.943649722,15.4493962 0.0471544461,16.3458914 0.0471544461,17.4515918 C0.0471544461,18.5572922 0.943649722,19.4537874 2.04935009,19.4537874 Z M12.6314697,13.6735536 C13.6070742,15.1857749 14.897058,16.4757586 16.4092793,17.4515918 C14.897058,18.4271963 13.6073028,19.7171801 12.6314697,21.2294014 C11.6558651,19.7171801 10.3656527,18.427425 8.85343143,17.4515918 C10.3656527,16.4759873 11.6558651,15.1857749 12.6314697,13.6735536 Z" id="Shape"></path>
                                    <ellipse id="Oval" cx="28.7292873" cy="2.68308392" rx="2.5102325" ry="2.5102325"></ellipse>
                                </g>
                            </g>
                            <g id="register" transform="translate(49.280036, 25.956430)">
                                <path d="M114.134231,61.6710023 L96.631044,44.1678153 C94.3696414,41.9060266 90.7024393,41.9060266 88.4406506,44.1678153 L84.9425615,47.6659045 L84.9425615,5.79153828 C84.9425615,2.59306474 82.3494967,0 79.1510232,0 L5.79153828,0 C2.59306474,0 0,2.59306474 0,5.79153828 L0,98.456923 C0,101.655397 2.59306474,104.248461 5.79153828,104.248461 L38.2822225,104.248461 L38.6102552,113.900253 C38.6102552,117.098726 41.2033199,119.691791 44.4017935,119.691791 L61.9049805,119.691791 C63.4412825,119.691791 64.9142638,119.081363 66.0003703,117.995257 L114.134617,69.8610097 C116.396406,67.5992209 116.396406,63.9327911 114.134231,61.6710023 Z M8.78654311,7.91260892 L76.1560183,7.91260892 L76.1560183,57.891549 L38.2289681,96.3354662 C38.2289681,96.3354662 36.5488321,96.1994641 36.433883,96.3354662 L8.78654311,96.3354662 L8.78654311,7.91260892 Z M61.7033096,111.928875 L47.146193,112.317655 L46.6512628,99.5102929 L92.2727681,52.8464429 L106.729948,66.484751 L61.7033096,111.928875 Z" id="Shape"></path>
                            </g>
                        </g>
                    </g>
                </g>
            </g>
        </g>
    </g>
</svg>